<?xml version="1.0" encoding="utf-8"?>
<!-- Generator: Adobe Illustrator 23.1.0, SVG Export Plug-In . SVG Version: 6.00 Build 0)  -->
<svg version="1.1" id="Слой_1" xmlns="http://www.w3.org/2000/svg" xmlns:xlink="http://www.w3.org/1999/xlink" x="0px" y="0px"
	 viewBox="0 0 219.1 239.7" style="enable-background:new 0 0 219.1 239.7;" xml:space="preserve">
<g transform="translate(0.000000,300.000000) scale(0.100000,-0.100000)">
	<path d="M960.3,2993.1c5-8-3-12-26-12c-39,0-66-14-49-24c26-17,6-23-56-19c-58,5-72,2-93-16c-23-19-24-20-5-21c17-1,15-3-9-16
		c-20-12-25-18-16-24c8-5-10-19-54-39c-36-18-66-37-66-42c0-6,4-8,9-4c5,3,12,1,16-4c3-6-3-15-14-21c-30-16-45-48-31-65
		c9-11,7-22-10-50c-18-30-19-35-6-35c15,0,15-3,3-27c-17-34-16-227,1-260c6-11,23-28,37-37c18-12,25-25,25-49l-1-32l-30,38
		c-17,20-37,37-45,37c-43,0-43-114,0-220c33-80,68-114,108-106c15,3,28,4,28,2s11-34,25-72s25-78,25-90c0-27-42-66-109-99
		c-60-30-145-105-167-146c-7-15-18-49-24-75c-6-27-16-54-22-62c-7-8-62-39-122-69c-108-54-269-153-282-174c-3-6,18,4,47,21
		c76,45,227,116,273,128c52,15,67,5,109-70c42-74,108-153,194-232c100-93,129-156,140-308c6-84,14-106,27-72c14,36,18,213,7,278
		c-17,99-40,136-120,195c-87,65-123,105-162,184c-63,125-47,240,44,307l42,31l3-33c9-118,33-196,114-366c79-168,106-274,107-434
		l1-47l57-11c31-7,104-10,164-8c122,4,119,5,119-70c1-58,15-39,24,33c30,221,69,313,225,518c143,190,186,277,193,386
		c2,24,8,46,14,48c16,5,72-44,90-80c19-35,20-113,3-165c-7-20-27-59-45-87c-60-93-125-150-251-223c-94-55-132-104-170-222
		c-15-49-31-270-18-258c5,5,18,48,31,96c39,154,78,209,230,323c136,102,220,195,279,312c36,71,56,99,72,103s63-13,150-56
		c149-73,193-92,193-86c0,13-207,140-292,179c-83,39-99,50-116,84c-22,41-59,80-107,109c-16,10-49,36-73,57s-63,48-88,58
		c-24,11-44,23-44,27s8,30,19,57c10,28,22,73,25,100c5,32,15,56,28,66c33,25,63,247,42,311c-3,10-13,18-22,18c-15,0-17,13-18,87
		c-2,120-14,202-33,225c-9,10-21,33-27,51c-7,20-24,40-48,53c-21,12-48,39-60,60c-13,23-29,39-40,39c-9,0-22,8-27,18
		c-6,11-17,16-27,13c-10-4-39,11-72,36c-49,38-61,42-115,44c-33,0-78,5-99,9C963.3,3002.1,955.3,3001.1,960.3,2993.1z
		 M1201.3,2681.1c-15-25,9-28,61-9c45,17,60,19,78,10c33-18,65-75,81-146c9-36,20-76,25-90l10-25h-69c-87,0-170-16-193-36
		c-9-9-29-18-42-19c-13-2-39-6-56-10c-23-5-36-2-50,10c-17,15-34,17-117,13c-81-4-107-9-148-31c-53-29-105-36-105-14
		c0,6,11,30,25,52c18,29,24,54,25,95c0,74,25,136,59,148c14,6,35,13,45,18c15,6,18,4,14-8c-17-42,46-50,111-13c49,28,86,33,78,11
		c-14-36,51-23,115,23C1192.3,2691.1,1212.3,2699.1,1201.3,2681.1z M1450.3,2359.1c32-46,12-136-39-176c-41-33-123-31-164,4
		c-17,14-31,30-31,34c0,5,24,6,53,3c54-5,107,8,107,27c0,8-15,9-44,5c-24-4-52-3-61,2c-13,8-7,11,30,16c26,4,51,4,57,1
		c5-3,21-3,34,0c21,6,24,9,14,21c-9,11-9,15-1,15c6,0,11,16,11,35C1416.3,2386.1,1428.3,2391.1,1450.3,2359.1z M1510.3,2360.1
		c-3-5-10-7-15-3c-5,3-7,10-3,15c3,5,10,7,15,3C1512.3,2372.1,1514.3,2365.1,1510.3,2360.1z M1376.3,2320.1c11-7,1-8-35-3
		c-27,4-52,8-54,10C1277.3,2336.1,1363.3,2330.1,1376.3,2320.1z M844.3,2276.1c13,5,12,2-2-14c-17-19-17-21-2-27c9-3,13-11,10-16
		c-10-16,18-28,69-28c53,0,117,22,117,41c0,7,3,10,6,7c10-11-24-75-51-96c-30-24-111-30-146-12c-29,16-52,70-52,122
		c1,60,13,82,26,44C825.3,2278.1,833.3,2271.1,844.3,2276.1z M1164.3,2261.1c39-120,132-168,242-124c27,11,49,30,66,58l26,41l-6-115
		c-7-167-32-256-84-303c-17-16-20-16-25-2c-10,25-25,17-46-22c-25-49-50-71-89-79c-24-5-33-3-38,10c-8,22-27,20-42-4
		c-27-43-130-17-177,44c-29,38-45,46-45,22c0-26-18-27-59-6c-56,28-85,71-119,176c-16,50-38,103-47,118c-17,26-45,123-45,159
		c0,11,8,17,25,17c29,0,38-9,73-80s74-93,151-86c88,8,149,71,166,171c9,52,13,57,38,53C1143.3,2307.1,1154.3,2293.1,1164.3,2261.1z
		 M766.3,2291.1c0-5-4-10-10-10c-5,0-10,5-10,10c0,6,5,10,10,10C762.3,2301.1,766.3,2297.1,766.3,2291.1z M901.3,2291.1
		c-27-12-43-12-25,0c8,5,22,9,30,9C916.3,2300.1,914.3,2297.1,901.3,2291.1z M991.3,2241.1c3-6-4-10-17-10s-41-3-63-6
		c-28-5-37-3-30,4c9,9,38,16,87,21C977.3,2250.1,988.3,2247.1,991.3,2241.1z M1546.3,2166.1c-5-43-12-81-16-84c-5-5,1,65,12,138
		C1552.3,2287.1,1556.3,2242.1,1546.3,2166.1z M568.3,2143.1c-3-34,1-44,24-64c70-60,86-98,39-98c-20,0-30,11-55,60
		c-32,63-43,156-17,147C567.3,2186.1,570.3,2170.1,568.3,2143.1z M1431.3,1599.1c-6-110-4-141,9-181c10-26,14-56,11-67
		c-8-26-109-116-156-141c-159-81-381-58-484,50c-28,30-29,36-26,104c1,40-5,111-14,159s-15,106-13,129l3,42l68-96
		c88-126,182-227,211-227c58,0,282,191,354,302c20,32,38,58,40,58S1434.3,1671.1,1431.3,1599.1z"/>
	<path d="M1218.3,2090.1c4-11-3-24-22-38c-24-17-34-19-55-11c-15,6-39,10-55,10c-19,0-30,6-33,18c-3,10-5,6-6-11c-1-20,7-32,29-46
		c34-20,29-30-29-50c-50-16-81-14-81,6c0,14-4,12-25-7c-29-27-31-49-9-91c16-33,20-32,38,3c11,22,18,23,116,24c58,1,125,7,150,13
		c25,7,54,15,66,17c15,4,23-1,32-20c15-33,26-33,40-1c19,42,14,72-15,95l-28,22l-6-24c-5-20-10-23-50-20c-55,4-68,15-46,40
		c22,24,22,56,0,73C1214.3,2104.1,1213.3,2104.1,1218.3,2090.1z M1140.3,1951.1c18-6,34-6,51,2s32,8,47,1c19-9,12-12-47-17
		c-38-4-88-9-110-12l-40-4l30,19C1107.3,1963.1,1108.3,1964.1,1140.3,1951.1z"/>
	<path d="M1206.3,1875.1c-25-7-64-13-87-13c-49-1-54-13-18-37c34-22,109-11,141,21c23,23,32,46,17,44
		C1254.3,1889.1,1231.3,1883.1,1206.3,1875.1z"/>
	<path d="M2149.3,1189.1c-28-57-85-142-160-238l-27-35l43,40c72,67,162,198,181,264C2200.3,1271.1,2182.3,1255.1,2149.3,1189.1z"/>
</g>
</svg>
