<?xml version="1.0" standalone="no"?>
<!DOCTYPE svg PUBLIC "-//W3C//DTD SVG 20010904//EN"
 "http://www.w3.org/TR/2001/REC-SVG-20010904/DTD/svg10.dtd">
<svg version="1.0" xmlns="http://www.w3.org/2000/svg"
 width="400.000000pt" height="300.000000pt" viewBox="0 0 400.000000 300.000000"
 preserveAspectRatio="xMidYMid meet">

<g transform="translate(0.000000,300.000000) scale(0.100000,-0.100000)"
fill="#000000" stroke="none">
<path d="M1874 2692 c5 -8 -3 -12 -26 -12 -39 0 -66 -14 -49 -24 26 -17 6 -23
-56 -19 -58 5 -72 2 -93 -16 -23 -19 -24 -20 -5 -21 17 -1 15 -3 -9 -16 -20
-12 -25 -18 -16 -24 8 -5 -10 -19 -54 -39 -36 -18 -66 -37 -66 -42 0 -6 4 -8
9 -4 5 3 12 1 16 -4 3 -6 -3 -15 -14 -21 -30 -16 -45 -48 -31 -65 9 -11 7 -22
-10 -50 -18 -30 -19 -35 -6 -35 15 0 15 -3 3 -27 -17 -34 -16 -227 1 -260 6
-11 23 -28 37 -37 18 -12 25 -25 25 -49 l-1 -32 -30 38 c-17 20 -37 37 -45 37
-43 0 -43 -114 0 -220 33 -80 68 -114 108 -106 15 3 28 4 28 2 0 -2 11 -34 25
-72 14 -38 25 -78 25 -90 0 -27 -42 -66 -109 -99 -60 -30 -145 -105 -167 -146
-7 -15 -18 -49 -24 -75 -6 -27 -16 -54 -22 -62 -7 -8 -62 -39 -122 -69 -108
-54 -269 -153 -282 -174 -3 -6 18 4 47 21 76 45 227 116 273 128 52 15 67 5
109 -70 42 -74 108 -153 194 -232 100 -93 129 -156 140 -308 6 -84 14 -106 27
-72 14 36 18 213 7 278 -17 99 -40 136 -120 195 -87 65 -123 105 -162 184 -63
125 -47 240 44 307 l42 31 3 -33 c9 -118 33 -196 114 -366 79 -168 106 -274
107 -434 l1 -47 57 -11 c31 -7 104 -10 164 -8 122 4 119 5 119 -70 1 -58 15
-39 24 33 30 221 69 313 225 518 143 190 186 277 193 386 2 24 8 46 14 48 16
5 72 -44 90 -80 19 -35 20 -113 3 -165 -7 -20 -27 -59 -45 -87 -60 -93 -125
-150 -251 -223 -94 -55 -132 -104 -170 -222 -15 -49 -31 -270 -18 -258 5 5 18
48 31 96 39 154 78 209 230 323 136 102 220 195 279 312 36 71 56 99 72 103
16 4 63 -13 150 -56 149 -73 193 -92 193 -86 0 13 -207 140 -292 179 -83 39
-99 50 -116 84 -22 41 -59 80 -107 109 -16 10 -49 36 -73 57 -24 21 -63 48
-88 58 -24 11 -44 23 -44 27 0 4 8 30 19 57 10 28 22 73 25 100 5 32 15 56 28
66 33 25 63 247 42 311 -3 10 -13 18 -22 18 -15 0 -17 13 -18 87 -2 120 -14
202 -33 225 -9 10 -21 33 -27 51 -7 20 -24 40 -48 53 -21 12 -48 39 -60 60
-13 23 -29 39 -40 39 -9 0 -22 8 -27 18 -6 11 -17 16 -27 13 -10 -4 -39 11
-72 36 -49 38 -61 42 -115 44 -33 0 -78 5 -99 9 -29 6 -37 5 -32 -3z m241
-312 c-15 -25 9 -28 61 -9 45 17 60 19 78 10 33 -18 65 -75 81 -146 9 -36 20
-76 25 -90 l10 -25 -69 0 c-87 0 -170 -16 -193 -36 -9 -9 -29 -18 -42 -19 -13
-2 -39 -6 -56 -10 -23 -5 -36 -2 -50 10 -17 15 -34 17 -117 13 -81 -4 -107 -9
-148 -31 -53 -29 -105 -36 -105 -14 0 6 11 30 25 52 18 29 24 54 25 95 0 74
25 136 59 148 14 6 35 13 45 18 15 6 18 4 14 -8 -17 -42 46 -50 111 -13 49 28
86 33 78 11 -14 -36 51 -23 115 23 44 31 64 39 53 21z m249 -322 c32 -46 12
-136 -39 -176 -41 -33 -123 -31 -164 4 -17 14 -31 30 -31 34 0 5 24 6 53 3 54
-5 107 8 107 27 0 8 -15 9 -44 5 -24 -4 -52 -3 -61 2 -13 8 -7 11 30 16 26 4
51 4 57 1 5 -3 21 -3 34 0 21 6 24 9 14 21 -9 11 -9 15 -1 15 6 0 11 16 11 35
0 40 12 45 34 13z m60 1 c-3 -5 -10 -7 -15 -3 -5 3 -7 10 -3 15 3 5 10 7 15 3
5 -3 7 -10 3 -15z m-134 -40 c11 -7 1 -8 -35 -3 -27 4 -52 8 -54 10 -10 9 76
3 89 -7z m-532 -44 c13 5 12 2 -2 -14 -17 -19 -17 -21 -2 -27 9 -3 13 -11 10
-16 -10 -16 18 -28 69 -28 53 0 117 22 117 41 0 7 3 10 6 7 10 -11 -24 -75
-51 -96 -30 -24 -111 -30 -146 -12 -29 16 -52 70 -52 122 1 60 13 82 26 44 6
-19 14 -26 25 -21z m320 -15 c39 -120 132 -168 242 -124 27 11 49 30 66 58
l26 41 -6 -115 c-7 -167 -32 -256 -84 -303 -17 -16 -20 -16 -25 -2 -10 25 -25
17 -46 -22 -25 -49 -50 -71 -89 -79 -24 -5 -33 -3 -38 10 -8 22 -27 20 -42 -4
-27 -43 -130 -17 -177 44 -29 38 -45 46 -45 22 0 -26 -18 -27 -59 -6 -56 28
-85 71 -119 176 -16 50 -38 103 -47 118 -17 26 -45 123 -45 159 0 11 8 17 25
17 29 0 38 -9 73 -80 35 -71 74 -93 151 -86 88 8 149 71 166 171 9 52 13 57
38 53 14 -2 25 -16 35 -48z m-398 30 c0 -5 -4 -10 -10 -10 -5 0 -10 5 -10 10
0 6 5 10 10 10 6 0 10 -4 10 -10z m135 0 c-27 -12 -43 -12 -25 0 8 5 22 9 30
9 10 0 8 -3 -5 -9z m90 -50 c3 -6 -4 -10 -17 -10 -13 0 -41 -3 -63 -6 -28 -5
-37 -3 -30 4 9 9 38 16 87 21 9 0 20 -3 23 -9z m555 -75 c-5 -43 -12 -81 -16
-84 -5 -5 1 65 12 138 10 67 14 22 4 -54z m-978 -23 c-3 -34 1 -44 24 -64 70
-60 86 -98 39 -98 -20 0 -30 11 -55 60 -32 63 -43 156 -17 147 8 -2 11 -18 9
-45z m863 -544 c-6 -110 -4 -141 9 -181 10 -26 14 -56 11 -67 -8 -26 -109
-116 -156 -141 -159 -81 -381 -58 -484 50 -28 30 -29 36 -26 104 1 40 -5 111
-14 159 -9 48 -15 106 -13 129 l3 42 68 -96 c88 -126 182 -227 211 -227 58 0
282 191 354 302 20 32 38 58 40 58 2 0 0 -60 -3 -132z"/>
<path d="M2132 1789 c4 -11 -3 -24 -22 -38 -24 -17 -34 -19 -55 -11 -15 6 -39
10 -55 10 -19 0 -30 6 -33 18 -3 10 -5 6 -6 -11 -1 -20 7 -32 29 -46 34 -20
29 -30 -29 -50 -50 -16 -81 -14 -81 6 0 14 -4 12 -25 -7 -29 -27 -31 -49 -9
-91 16 -33 20 -32 38 3 11 22 18 23 116 24 58 1 125 7 150 13 25 7 54 15 66
17 15 4 23 -1 32 -20 15 -33 26 -33 40 -1 19 42 14 72 -15 95 l-28 22 -6 -24
c-5 -20 -10 -23 -50 -20 -55 4 -68 15 -46 40 22 24 22 56 0 73 -15 12 -16 12
-11 -2z m-78 -139 c18 -6 34 -6 51 2 17 8 32 8 47 1 19 -9 12 -12 -47 -17 -38
-4 -88 -9 -110 -12 l-40 -4 30 19 c36 23 37 24 69 11z"/>
<path d="M2120 1574 c-25 -7 -64 -13 -87 -13 -49 -1 -54 -13 -18 -37 34 -22
109 -11 141 21 23 23 32 46 17 44 -5 -1 -28 -7 -53 -15z"/>
<path d="M3063 888 c-28 -57 -85 -142 -160 -238 l-27 -35 43 40 c72 67 162
198 181 264 14 51 -4 35 -37 -31z"/>
</g>
</svg>
